<svg xmlns="http://www.w3.org/2000/svg" viewBox="0 0 512 512">
  <rect x="0" y="0" width="512" height="512" rx="100" fill="#1B3168"/>

  <!-- Left Arm (White) -->
  <!-- Thick stroke from top-left to bottom-center -->
  <path d="M140 120 H220 L265 300 L256 430 L140 120 Z" fill="white"/>
  
  <!-- Let's redraw the Left Arm to be the main anchor -->
  <path d="M130 110 L220 110 L256 280 L256 420 L130 110" fill="white"/> 
  <!-- This is failing to look like the curvy nice V. Let's use clean vectors. -->

  <!-- Left Leg (White) -->
  <path d="M145 110 L235 110 L275 350 L256 430 L145 110 Z" fill="white"/>
  <!-- Wait, the previous one was better but just misaligned. -->

  <!-- Attempt 3: Precise Geometry -->
  
  <!-- L1: Left Outer Top --> <path d="M135 115" />
  <!-- L2: Bottom Tip -->     <path d="M256 435" />
  <!-- L3: Right Outer Top --> <path d="M377 115" />
  
  <!-- Main V shape (Mask or Base) -->
  
  <!-- Left Leg + Bottom Hook -->
  <path d="M135 115 H225 L256 260 L240 350 L256 435 L135 115" fill="white"/> 
  <!-- This form is hard to code blindly. Let's use a simpler composite. -->

  <!-- Left Stroke (White) -->
  <path d="M150 120 L230 120 L265 320 L256 420 L150 120 Z" fill="white"/> 
  <!-- The crotch is higher. -->
  
  <!-- Refined Shapes -->
  
  <!-- 1. Left White Shape -->
  <path d="M140 120 L225 120 L250 250 L256 410 L140 120 Z" fill="white"/>
  
  <!-- 2. Upper Right White Shape -->
  <path d="M305 120 L390 120 L335 230 L290 200 Z" fill="white"/>
  
  <!-- 3. Teal Wedge connecting them -->
  <path d="M250 250 L290 200 L335 230 L256 410 Z" fill="#249FBC"/>
  
</svg>
